<svg width="193" height="191" viewBox="0 0 193 191" fill="none" xmlns="http://www.w3.org/2000/svg">
<path d="M179 56C176.791 56 175 54.2091 175 52C175 49.7909 176.791 48 179 48C181.209 48 183 49.7909 183 52C183 54.2091 181.209 56 179 56Z" fill="#F8D50E"/>
<path fill-rule="evenodd" clip-rule="evenodd" d="M176 52C176 53.6569 177.343 55 179 55C180.657 55 182 53.6569 182 52C182 50.3431 180.657 49 179 49C177.343 49 176 50.3431 176 52ZM175 52C175 54.2091 176.791 56 179 56C181.209 56 183 54.2091 183 52C183 49.7909 181.209 48 179 48C176.791 48 175 49.7909 175 52Z" fill="black"/>
<path d="M189 70C186.791 70 185 68.2091 185 66C185 63.7909 186.791 62 189 62C191.209 62 193 63.7909 193 66C193 68.2091 191.209 70 189 70Z" fill="#F8D50E"/>
<path fill-rule="evenodd" clip-rule="evenodd" d="M186 66C186 67.6569 187.343 69 189 69C190.657 69 192 67.6569 192 66C192 64.3431 190.657 63 189 63C187.343 63 186 64.3431 186 66ZM185 66C185 68.2091 186.791 70 189 70C191.209 70 193 68.2091 193 66C193 63.7909 191.209 62 189 62C186.791 62 185 63.7909 185 66Z" fill="black"/>
<path d="M179 83C176.791 83 175 81.2091 175 79C175 76.7909 176.791 75 179 75C181.209 75 183 76.7909 183 79C183 81.2091 181.209 83 179 83Z" fill="#F8D50E"/>
<path fill-rule="evenodd" clip-rule="evenodd" d="M176 79C176 80.6569 177.343 82 179 82C180.657 82 182 80.6569 182 79C182 77.3431 180.657 76 179 76C177.343 76 176 77.3431 176 79ZM175 79C175 81.2091 176.791 83 179 83C181.209 83 183 81.2091 183 79C183 76.7909 181.209 75 179 75C176.791 75 175 76.7909 175 79Z" fill="black"/>
<path d="M188 103C185.791 103 184 101.209 184 99C184 96.7909 185.791 95 188 95C190.209 95 192 96.7909 192 99C192 101.209 190.209 103 188 103Z" fill="#F8D50E"/>
<path fill-rule="evenodd" clip-rule="evenodd" d="M185 99C185 100.657 186.343 102 188 102C189.657 102 191 100.657 191 99C191 97.3431 189.657 96 188 96C186.343 96 185 97.3431 185 99ZM184 99C184 101.209 185.791 103 188 103C190.209 103 192 101.209 192 99C192 96.7909 190.209 95 188 95C185.791 95 184 96.7909 184 99Z" fill="black"/>
<path d="M184 115C181.791 115 180 113.209 180 111C180 108.791 181.791 107 184 107C186.209 107 188 108.791 188 111C188 113.209 186.209 115 184 115Z" fill="#F8D50E"/>
<path fill-rule="evenodd" clip-rule="evenodd" d="M181 111C181 112.657 182.343 114 184 114C185.657 114 187 112.657 187 111C187 109.343 185.657 108 184 108C182.343 108 181 109.343 181 111ZM180 111C180 113.209 181.791 115 184 115C186.209 115 188 113.209 188 111C188 108.791 186.209 107 184 107C181.791 107 180 108.791 180 111Z" fill="black"/>
<path d="M183 129C180.791 129 179 127.209 179 125C179 122.791 180.791 121 183 121C185.209 121 187 122.791 187 125C187 127.209 185.209 129 183 129Z" fill="#F8D50E"/>
<path fill-rule="evenodd" clip-rule="evenodd" d="M180 125C180 126.657 181.343 128 183 128C184.657 128 186 126.657 186 125C186 123.343 184.657 122 183 122C181.343 122 180 123.343 180 125ZM179 125C179 127.209 180.791 129 183 129C185.209 129 187 127.209 187 125C187 122.791 185.209 121 183 121C180.791 121 179 122.791 179 125Z" fill="black"/>
<path d="M176 140C173.791 140 172 138.209 172 136C172 133.791 173.791 132 176 132C178.209 132 180 133.791 180 136C180 138.209 178.209 140 176 140Z" fill="#F8D50E"/>
<path fill-rule="evenodd" clip-rule="evenodd" d="M173 136C173 137.657 174.343 139 176 139C177.657 139 179 137.657 179 136C179 134.343 177.657 133 176 133C174.343 133 173 134.343 173 136ZM172 136C172 138.209 173.791 140 176 140C178.209 140 180 138.209 180 136C180 133.791 178.209 132 176 132C173.791 132 172 133.791 172 136Z" fill="black"/>
<path d="M14 56C16.2091 56 18 54.2091 18 52C18 49.7909 16.2091 48 14 48C11.7909 48 10 49.7909 10 52C10 54.2091 11.7909 56 14 56Z" fill="#F8D50E"/>
<path fill-rule="evenodd" clip-rule="evenodd" d="M17 52C17 53.6569 15.6569 55 14 55C12.3431 55 11 53.6569 11 52C11 50.3431 12.3431 49 14 49C15.6569 49 17 50.3431 17 52ZM18 52C18 54.2091 16.2091 56 14 56C11.7909 56 10 54.2091 10 52C10 49.7909 11.7909 48 14 48C16.2091 48 18 49.7909 18 52Z" fill="black"/>
<path d="M4 70C6.20914 70 8 68.2091 8 66C8 63.7909 6.20914 62 4 62C1.79086 62 -9.65645e-08 63.7909 0 66C9.65645e-08 68.2091 1.79086 70 4 70Z" fill="#F8D50E"/>
<path fill-rule="evenodd" clip-rule="evenodd" d="M7 66C7 67.6569 5.65685 69 4 69C2.34315 69 1 67.6569 1 66C1 64.3431 2.34315 63 4 63C5.65685 63 7 64.3431 7 66ZM8 66C8 68.2091 6.20914 70 4 70C1.79086 70 9.65645e-08 68.2091 0 66C-9.65645e-08 63.7909 1.79086 62 4 62C6.20914 62 8 63.7909 8 66Z" fill="black"/>
<path d="M14 83C16.2091 83 18 81.2091 18 79C18 76.7909 16.2091 75 14 75C11.7909 75 10 76.7909 10 79C10 81.2091 11.7909 83 14 83Z" fill="#F8D50E"/>
<path fill-rule="evenodd" clip-rule="evenodd" d="M17 79C17 80.6569 15.6569 82 14 82C12.3431 82 11 80.6569 11 79C11 77.3431 12.3431 76 14 76C15.6569 76 17 77.3431 17 79ZM18 79C18 81.2091 16.2091 83 14 83C11.7909 83 10 81.2091 10 79C10 76.7909 11.7909 75 14 75C16.2091 75 18 76.7909 18 79Z" fill="black"/>
<path d="M5 103C7.20914 103 9 101.209 9 99C9 96.7909 7.20914 95 5 95C2.79086 95 1 96.7909 1 99C1 101.209 2.79086 103 5 103Z" fill="#F8D50E"/>
<path fill-rule="evenodd" clip-rule="evenodd" d="M8 99C8 100.657 6.65685 102 5 102C3.34315 102 2 100.657 2 99C2 97.3431 3.34315 96 5 96C6.65685 96 8 97.3431 8 99ZM9 99C9 101.209 7.20914 103 5 103C2.79086 103 1 101.209 1 99C1 96.7909 2.79086 95 5 95C7.20914 95 9 96.7909 9 99Z" fill="black"/>
<path d="M9 115C11.2091 115 13 113.209 13 111C13 108.791 11.2091 107 9 107C6.79086 107 5 108.791 5 111C5 113.209 6.79086 115 9 115Z" fill="#F8D50E"/>
<path fill-rule="evenodd" clip-rule="evenodd" d="M12 111C12 112.657 10.6569 114 9 114C7.34315 114 6 112.657 6 111C6 109.343 7.34315 108 9 108C10.6569 108 12 109.343 12 111ZM13 111C13 113.209 11.2091 115 9 115C6.79086 115 5 113.209 5 111C5 108.791 6.79086 107 9 107C11.2091 107 13 108.791 13 111Z" fill="black"/>
<path d="M10 129C12.2091 129 14 127.209 14 125C14 122.791 12.2091 121 10 121C7.79086 121 6 122.791 6 125C6 127.209 7.79086 129 10 129Z" fill="#F8D50E"/>
<path fill-rule="evenodd" clip-rule="evenodd" d="M13 125C13 126.657 11.6569 128 10 128C8.34315 128 7 126.657 7 125C7 123.343 8.34315 122 10 122C11.6569 122 13 123.343 13 125ZM14 125C14 127.209 12.2091 129 10 129C7.79086 129 6 127.209 6 125C6 122.791 7.79086 121 10 121C12.2091 121 14 122.791 14 125Z" fill="black"/>
<path d="M17 140C19.2091 140 21 138.209 21 136C21 133.791 19.2091 132 17 132C14.7909 132 13 133.791 13 136C13 138.209 14.7909 140 17 140Z" fill="#F8D50E"/>
<path fill-rule="evenodd" clip-rule="evenodd" d="M20 136C20 137.657 18.6569 139 17 139C15.3431 139 14 137.657 14 136C14 134.343 15.3431 133 17 133C18.6569 133 20 134.343 20 136ZM21 136C21 138.209 19.2091 140 17 140C14.7909 140 13 138.209 13 136C13 133.791 14.7909 132 17 132C19.2091 132 21 133.791 21 136Z" fill="black"/>
<path d="M136 14C136 16.2091 137.791 18 140 18C142.209 18 144 16.2091 144 14C144 11.7909 142.209 10 140 10C137.791 10 136 11.7909 136 14Z" fill="#F8D50E"/>
<path fill-rule="evenodd" clip-rule="evenodd" d="M140 17C138.343 17 137 15.6569 137 14C137 12.3431 138.343 11 140 11C141.657 11 143 12.3431 143 14C143 15.6569 141.657 17 140 17ZM140 18C137.791 18 136 16.2091 136 14C136 11.7909 137.791 10 140 10C142.209 10 144 11.7909 144 14C144 16.2091 142.209 18 140 18Z" fill="black"/>
<path d="M122 4C122 6.20914 123.791 8 126 8C128.209 8 130 6.20914 130 4C130 1.79086 128.209 0 126 0C123.791 0 122 1.79086 122 4Z" fill="#F8D50E"/>
<path fill-rule="evenodd" clip-rule="evenodd" d="M126 7C124.343 7 123 5.65685 123 4C123 2.34315 124.343 1 126 1C127.657 1 129 2.34315 129 4C129 5.65685 127.657 7 126 7ZM126 8C123.791 8 122 6.20914 122 4C122 1.79086 123.791 0 126 0C128.209 0 130 1.79086 130 4C130 6.20914 128.209 8 126 8Z" fill="black"/>
<path d="M109 14C109 16.2091 110.791 18 113 18C115.209 18 117 16.2091 117 14C117 11.7909 115.209 10 113 10C110.791 10 109 11.7909 109 14Z" fill="#F8D50E"/>
<path fill-rule="evenodd" clip-rule="evenodd" d="M113 17C111.343 17 110 15.6569 110 14C110 12.3431 111.343 11 113 11C114.657 11 116 12.3431 116 14C116 15.6569 114.657 17 113 17ZM113 18C110.791 18 109 16.2091 109 14C109 11.7909 110.791 10 113 10C115.209 10 117 11.7909 117 14C117 16.2091 115.209 18 113 18Z" fill="black"/>
<path d="M89 5C89 7.20914 90.7909 9 93 9C95.2091 9 97 7.20914 97 5C97 2.79086 95.2091 1 93 1C90.7909 1 89 2.79086 89 5Z" fill="#F8D50E"/>
<path fill-rule="evenodd" clip-rule="evenodd" d="M93 8C91.3431 8 90 6.65685 90 5C90 3.34315 91.3431 2 93 2C94.6569 2 96 3.34315 96 5C96 6.65685 94.6569 8 93 8ZM93 9C90.7909 9 89 7.20914 89 5C89 2.79086 90.7909 1 93 1C95.2091 1 97 2.79086 97 5C97 7.20914 95.2091 9 93 9Z" fill="black"/>
<path d="M77 9C77 11.2091 78.7909 13 81 13C83.2091 13 85 11.2091 85 9C85 6.79086 83.2091 5 81 5C78.7909 5 77 6.79086 77 9Z" fill="#F8D50E"/>
<path fill-rule="evenodd" clip-rule="evenodd" d="M81 12C79.3431 12 78 10.6569 78 9C78 7.34315 79.3431 6 81 6C82.6569 6 84 7.34315 84 9C84 10.6569 82.6569 12 81 12ZM81 13C78.7909 13 77 11.2091 77 9C77 6.79086 78.7909 5 81 5C83.2091 5 85 6.79086 85 9C85 11.2091 83.2091 13 81 13Z" fill="black"/>
<path d="M63 10C63 12.2091 64.7909 14 67 14C69.2091 14 71 12.2091 71 10C71 7.79086 69.2091 6 67 6C64.7909 6 63 7.79086 63 10Z" fill="#F8D50E"/>
<path fill-rule="evenodd" clip-rule="evenodd" d="M67 13C65.3431 13 64 11.6569 64 10C64 8.34315 65.3431 7 67 7C68.6569 7 70 8.34315 70 10C70 11.6569 68.6569 13 67 13ZM67 14C64.7909 14 63 12.2091 63 10C63 7.79086 64.7909 6 67 6C69.2091 6 71 7.79086 71 10C71 12.2091 69.2091 14 67 14Z" fill="black"/>
<path d="M52 17C52 19.2091 53.7909 21 56 21C58.2091 21 60 19.2091 60 17C60 14.7909 58.2091 13 56 13C53.7909 13 52 14.7909 52 17Z" fill="#F8D50E"/>
<path fill-rule="evenodd" clip-rule="evenodd" d="M56 20C54.3431 20 53 18.6569 53 17C53 15.3431 54.3431 14 56 14C57.6569 14 59 15.3431 59 17C59 18.6569 57.6569 20 56 20ZM56 21C53.7909 21 52 19.2091 52 17C52 14.7909 53.7909 13 56 13C58.2091 13 60 14.7909 60 17C60 19.2091 58.2091 21 56 21Z" fill="black"/>
<path d="M135 177C135 174.791 136.791 173 139 173C141.209 173 143 174.791 143 177C143 179.209 141.209 181 139 181C136.791 181 135 179.209 135 177Z" fill="#F8D50E"/>
<path fill-rule="evenodd" clip-rule="evenodd" d="M139 174C137.343 174 136 175.343 136 177C136 178.657 137.343 180 139 180C140.657 180 142 178.657 142 177C142 175.343 140.657 174 139 174ZM139 173C136.791 173 135 174.791 135 177C135 179.209 136.791 181 139 181C141.209 181 143 179.209 143 177C143 174.791 141.209 173 139 173Z" fill="black"/>
<path d="M121 187C121 184.791 122.791 183 125 183C127.209 183 129 184.791 129 187C129 189.209 127.209 191 125 191C122.791 191 121 189.209 121 187Z" fill="#F8D50E"/>
<path fill-rule="evenodd" clip-rule="evenodd" d="M125 184C123.343 184 122 185.343 122 187C122 188.657 123.343 190 125 190C126.657 190 128 188.657 128 187C128 185.343 126.657 184 125 184ZM125 183C122.791 183 121 184.791 121 187C121 189.209 122.791 191 125 191C127.209 191 129 189.209 129 187C129 184.791 127.209 183 125 183Z" fill="black"/>
<path d="M108 177C108 174.791 109.791 173 112 173C114.209 173 116 174.791 116 177C116 179.209 114.209 181 112 181C109.791 181 108 179.209 108 177Z" fill="#F8D50E"/>
<path fill-rule="evenodd" clip-rule="evenodd" d="M112 174C110.343 174 109 175.343 109 177C109 178.657 110.343 180 112 180C113.657 180 115 178.657 115 177C115 175.343 113.657 174 112 174ZM112 173C109.791 173 108 174.791 108 177C108 179.209 109.791 181 112 181C114.209 181 116 179.209 116 177C116 174.791 114.209 173 112 173Z" fill="black"/>
<path d="M88 186C88 183.791 89.7909 182 92 182C94.2091 182 96 183.791 96 186C96 188.209 94.2091 190 92 190C89.7909 190 88 188.209 88 186Z" fill="#F8D50E"/>
<path fill-rule="evenodd" clip-rule="evenodd" d="M92 183C90.3431 183 89 184.343 89 186C89 187.657 90.3431 189 92 189C93.6569 189 95 187.657 95 186C95 184.343 93.6569 183 92 183ZM92 182C89.7909 182 88 183.791 88 186C88 188.209 89.7909 190 92 190C94.2091 190 96 188.209 96 186C96 183.791 94.2091 182 92 182Z" fill="black"/>
<path d="M76 182C76 179.791 77.7909 178 80 178C82.2091 178 84 179.791 84 182C84 184.209 82.2091 186 80 186C77.7909 186 76 184.209 76 182Z" fill="#F8D50E"/>
<path fill-rule="evenodd" clip-rule="evenodd" d="M80 179C78.3431 179 77 180.343 77 182C77 183.657 78.3431 185 80 185C81.6569 185 83 183.657 83 182C83 180.343 81.6569 179 80 179ZM80 178C77.7909 178 76 179.791 76 182C76 184.209 77.7909 186 80 186C82.2091 186 84 184.209 84 182C84 179.791 82.2091 178 80 178Z" fill="black"/>
<path d="M62 181C62 178.791 63.7909 177 66 177C68.2091 177 70 178.791 70 181C70 183.209 68.2091 185 66 185C63.7909 185 62 183.209 62 181Z" fill="#F8D50E"/>
<path fill-rule="evenodd" clip-rule="evenodd" d="M66 178C64.3431 178 63 179.343 63 181C63 182.657 64.3431 184 66 184C67.6569 184 69 182.657 69 181C69 179.343 67.6569 178 66 178ZM66 177C63.7909 177 62 178.791 62 181C62 183.209 63.7909 185 66 185C68.2091 185 70 183.209 70 181C70 178.791 68.2091 177 66 177Z" fill="black"/>
<path d="M51 174C51 171.791 52.7909 170 55 170C57.2091 170 59 171.791 59 174C59 176.209 57.2091 178 55 178C52.7909 178 51 176.209 51 174Z" fill="#F8D50E"/>
<path fill-rule="evenodd" clip-rule="evenodd" d="M55 171C53.3431 171 52 172.343 52 174C52 175.657 53.3431 177 55 177C56.6569 177 58 175.657 58 174C58 172.343 56.6569 171 55 171ZM55 170C52.7909 170 51 171.791 51 174C51 176.209 52.7909 178 55 178C57.2091 178 59 176.209 59 174C59 171.791 57.2091 170 55 170Z" fill="black"/>
<path fill-rule="evenodd" clip-rule="evenodd" d="M168.667 52.5H175.5V51.5H168.333L158.333 59H144V60H158.667L168.667 52.5Z" fill="black"/>
<path fill-rule="evenodd" clip-rule="evenodd" d="M167.167 79.5H176V78.5H166.833L160.833 83H144V84H161.167L167.167 79.5Z" fill="black"/>
<path fill-rule="evenodd" clip-rule="evenodd" d="M184.5 99.5H162.415L152.415 96H144V95H152.585L162.585 98.5H184.5V99.5Z" fill="black"/>
<path fill-rule="evenodd" clip-rule="evenodd" d="M181 111.5H174.395L166.395 108H144V107H166.605L174.605 110.5H181V111.5Z" fill="black"/>
<path fill-rule="evenodd" clip-rule="evenodd" d="M179.5 125.5H157.293L151.793 120H143V119H152.207L157.707 124.5H179.5V125.5Z" fill="black"/>
<path fill-rule="evenodd" clip-rule="evenodd" d="M173 136.5H157.808L152.808 132H144V131H153.192L158.192 135.5H173V136.5Z" fill="black"/>
<path fill-rule="evenodd" clip-rule="evenodd" d="M172.183 66.5H186V65.5H171.817L165.317 71H142V72H165.683L172.183 66.5Z" fill="black"/>
<path fill-rule="evenodd" clip-rule="evenodd" d="M24.3333 52.5H17.5V51.5H24.6667L34.6667 59H49V60H34.3333L24.3333 52.5Z" fill="black"/>
<path fill-rule="evenodd" clip-rule="evenodd" d="M25.8333 79.5H17V78.5H26.1667L32.1667 83H49V84H31.8333L25.8333 79.5Z" fill="black"/>
<path fill-rule="evenodd" clip-rule="evenodd" d="M8.5 99.5H30.585L40.585 96H49V95H40.415L30.415 98.5H8.5V99.5Z" fill="black"/>
<path fill-rule="evenodd" clip-rule="evenodd" d="M12 111.5H18.6046L26.6046 108H49V107H26.3954L18.3954 110.5H12V111.5Z" fill="black"/>
<path fill-rule="evenodd" clip-rule="evenodd" d="M13.5 125.5H35.7071L41.2071 120H50V119H40.7929L35.2929 124.5H13.5V125.5Z" fill="black"/>
<path fill-rule="evenodd" clip-rule="evenodd" d="M20 136.5H35.1919L40.1919 132H49V131H39.8081L34.8081 135.5H20V136.5Z" fill="black"/>
<path fill-rule="evenodd" clip-rule="evenodd" d="M20.8168 66.5H7V65.5H21.1832L27.6832 71H51V72H27.3168L20.8168 66.5Z" fill="black"/>
<path fill-rule="evenodd" clip-rule="evenodd" d="M139.5 24.3333V17.5H140.5V24.6667L133 34.6667V49H132V34.3333L139.5 24.3333Z" fill="black"/>
<path fill-rule="evenodd" clip-rule="evenodd" d="M112.5 25.8333V17H113.5V26.1667L109 32.1667V49H108V31.8333L112.5 25.8333Z" fill="black"/>
<path fill-rule="evenodd" clip-rule="evenodd" d="M92.5 8.5V30.585L96 40.585V49H97V40.415L93.5 30.415V8.5H92.5Z" fill="black"/>
<path fill-rule="evenodd" clip-rule="evenodd" d="M80.5 12V18.6046L84 26.6046V49H85V26.3954L81.5 18.3954V12H80.5Z" fill="black"/>
<path fill-rule="evenodd" clip-rule="evenodd" d="M66.5 13.5V35.7071L72 41.2071V50H73V40.7929L67.5 35.2929V13.5H66.5Z" fill="black"/>
<path fill-rule="evenodd" clip-rule="evenodd" d="M55.5 20V35.1919L60 40.1919V49H61V39.8081L56.5 34.8081V20H55.5Z" fill="black"/>
<path fill-rule="evenodd" clip-rule="evenodd" d="M125.5 20.8168V7H126.5V21.1832L121 27.6832V51H120V27.3168L125.5 20.8168Z" fill="black"/>
<path fill-rule="evenodd" clip-rule="evenodd" d="M138.5 166.667V173.5H139.5V166.333L132 156.333V142H131V156.667L138.5 166.667Z" fill="black"/>
<path fill-rule="evenodd" clip-rule="evenodd" d="M111.5 165.167V174H112.5V164.833L108 158.833V142H107V159.167L111.5 165.167Z" fill="black"/>
<path fill-rule="evenodd" clip-rule="evenodd" d="M91.5 182.5V160.415L95 150.415V142H96V150.585L92.5 160.585V182.5H91.5Z" fill="black"/>
<path fill-rule="evenodd" clip-rule="evenodd" d="M79.5 179V172.395L83 164.395V142H84V164.605L80.5 172.605V179H79.5Z" fill="black"/>
<path fill-rule="evenodd" clip-rule="evenodd" d="M65.5 177.5V155.293L71 149.793V141H72V150.207L66.5 155.707V177.5H65.5Z" fill="black"/>
<path fill-rule="evenodd" clip-rule="evenodd" d="M54.5 171V155.808L59 150.808V142H60V151.192L55.5 156.192V171H54.5Z" fill="black"/>
<path fill-rule="evenodd" clip-rule="evenodd" d="M124.5 170.183V184H125.5V169.817L120 163.317V140H119V163.683L124.5 170.183Z" fill="black"/>
<path d="M133.5 57C132.119 57 131 58.1193 131 59.5C131 60.8807 132.119 62 133.5 62H142.5C143.881 62 145 60.8807 145 59.5C145 58.1193 143.881 57 142.5 57H133.5Z" fill="#585858"/>
<path d="M133.5 69C132.119 69 131 70.1193 131 71.5C131 72.8807 132.119 74 133.5 74H142.5C143.881 74 145 72.8807 145 71.5C145 70.1193 143.881 69 142.5 69H133.5Z" fill="#585858"/>
<path d="M133.5 81C132.119 81 131 82.1193 131 83.5C131 84.8807 132.119 86 133.5 86H142.5C143.881 86 145 84.8807 145 83.5C145 82.1193 143.881 81 142.5 81H133.5Z" fill="#585858"/>
<path d="M133.5 93C132.119 93 131 94.1193 131 95.5C131 96.8807 132.119 98 133.5 98H142.5C143.881 98 145 96.8807 145 95.5C145 94.1193 143.881 93 142.5 93H133.5Z" fill="#585858"/>
<path d="M133.5 105C132.119 105 131 106.119 131 107.5C131 108.881 132.119 110 133.5 110H142.5C143.881 110 145 108.881 145 107.5C145 106.119 143.881 105 142.5 105H133.5Z" fill="#585858"/>
<path d="M133.5 117C132.119 117 131 118.119 131 119.5C131 120.881 132.119 122 133.5 122H142.5C143.881 122 145 120.881 145 119.5C145 118.119 143.881 117 142.5 117H133.5Z" fill="#585858"/>
<path d="M133.5 129C132.119 129 131 130.119 131 131.5C131 132.881 132.119 134 133.5 134H142.5C143.881 134 145 132.881 145 131.5C145 130.119 143.881 129 142.5 129H133.5Z" fill="#585858"/>
<path d="M59.5 57C60.8807 57 62 58.1193 62 59.5C62 60.8807 60.8807 62 59.5 62H50.5C49.1193 62 48 60.8807 48 59.5C48 58.1193 49.1193 57 50.5 57H59.5Z" fill="#585858"/>
<path d="M59.5 69C60.8807 69 62 70.1193 62 71.5C62 72.8807 60.8807 74 59.5 74H50.5C49.1193 74 48 72.8807 48 71.5C48 70.1193 49.1193 69 50.5 69H59.5Z" fill="#585858"/>
<path d="M59.5 81C60.8807 81 62 82.1193 62 83.5C62 84.8807 60.8807 86 59.5 86H50.5C49.1193 86 48 84.8807 48 83.5C48 82.1193 49.1193 81 50.5 81H59.5Z" fill="#585858"/>
<path d="M59.5 93C60.8807 93 62 94.1193 62 95.5C62 96.8807 60.8807 98 59.5 98H50.5C49.1193 98 48 96.8807 48 95.5C48 94.1193 49.1193 93 50.5 93H59.5Z" fill="#585858"/>
<path d="M59.5 105C60.8807 105 62 106.119 62 107.5C62 108.881 60.8807 110 59.5 110H50.5C49.1193 110 48 108.881 48 107.5C48 106.119 49.1193 105 50.5 105H59.5Z" fill="#585858"/>
<path d="M59.5 117C60.8807 117 62 118.119 62 119.5C62 120.881 60.8807 122 59.5 122H50.5C49.1193 122 48 120.881 48 119.5C48 118.119 49.1193 117 50.5 117H59.5Z" fill="#585858"/>
<path d="M59.5 129C60.8807 129 62 130.119 62 131.5C62 132.881 60.8807 134 59.5 134H50.5C49.1193 134 48 132.881 48 131.5C48 130.119 49.1193 129 50.5 129H59.5Z" fill="#585858"/>
<path d="M135 59.5C135 60.8807 133.881 62 132.5 62C131.119 62 130 60.8807 130 59.5V50.5C130 49.1193 131.119 48 132.5 48C133.881 48 135 49.1193 135 50.5V59.5Z" fill="#585858"/>
<path d="M123 59.5C123 60.8807 121.881 62 120.5 62C119.119 62 118 60.8807 118 59.5V50.5C118 49.1193 119.119 48 120.5 48C121.881 48 123 49.1193 123 50.5V59.5Z" fill="#585858"/>
<path d="M111 59.5C111 60.8807 109.881 62 108.5 62C107.119 62 106 60.8807 106 59.5V50.5C106 49.1193 107.119 48 108.5 48C109.881 48 111 49.1193 111 50.5V59.5Z" fill="#585858"/>
<path d="M99 59.5C99 60.8807 97.8807 62 96.5 62C95.1193 62 94 60.8807 94 59.5V50.5C94 49.1193 95.1193 48 96.5 48C97.8807 48 99 49.1193 99 50.5V59.5Z" fill="#585858"/>
<path d="M87 59.5C87 60.8807 85.8807 62 84.5 62C83.1193 62 82 60.8807 82 59.5V50.5C82 49.1193 83.1193 48 84.5 48C85.8807 48 87 49.1193 87 50.5V59.5Z" fill="#585858"/>
<path d="M75 59.5C75 60.8807 73.8807 62 72.5 62C71.1193 62 70 60.8807 70 59.5V50.5C70 49.1193 71.1193 48 72.5 48C73.8807 48 75 49.1193 75 50.5V59.5Z" fill="#585858"/>
<path d="M63 59.5C63 60.8807 61.8807 62 60.5 62C59.1193 62 58 60.8807 58 59.5V50.5C58 49.1193 59.1193 48 60.5 48C61.8807 48 63 49.1193 63 50.5V59.5Z" fill="#585858"/>
<path d="M134 131.5C134 130.119 132.881 129 131.5 129C130.119 129 129 130.119 129 131.5V140.5C129 141.881 130.119 143 131.5 143C132.881 143 134 141.881 134 140.5V131.5Z" fill="#585858"/>
<path d="M122 131.5C122 130.119 120.881 129 119.5 129C118.119 129 117 130.119 117 131.5V140.5C117 141.881 118.119 143 119.5 143C120.881 143 122 141.881 122 140.5V131.5Z" fill="#585858"/>
<path d="M110 131.5C110 130.119 108.881 129 107.5 129C106.119 129 105 130.119 105 131.5V140.5C105 141.881 106.119 143 107.5 143C108.881 143 110 141.881 110 140.5V131.5Z" fill="#585858"/>
<path d="M98 131.5C98 130.119 96.8807 129 95.5 129C94.1193 129 93 130.119 93 131.5V140.5C93 141.881 94.1193 143 95.5 143C96.8807 143 98 141.881 98 140.5V131.5Z" fill="#585858"/>
<path d="M86 131.5C86 130.119 84.8807 129 83.5 129C82.1193 129 81 130.119 81 131.5V140.5C81 141.881 82.1193 143 83.5 143C84.8807 143 86 141.881 86 140.5V131.5Z" fill="#585858"/>
<path d="M74 131.5C74 130.119 72.8807 129 71.5 129C70.1193 129 69 130.119 69 131.5V140.5C69 141.881 70.1193 143 71.5 143C72.8807 143 74 141.881 74 140.5V131.5Z" fill="#585858"/>
<path d="M62 131.5C62 130.119 60.8807 129 59.5 129C58.1193 129 57 130.119 57 131.5V140.5C57 141.881 58.1193 143 59.5 143C60.8807 143 62 141.881 62 140.5V131.5Z" fill="#585858"/>
<path d="M54.58 56.7801C54.58 55.0128 56.0127 53.5801 57.78 53.5801H135.22C136.987 53.5801 138.42 55.0128 138.42 56.7801V134.22C138.42 135.987 136.987 137.42 135.22 137.42H57.78C56.0127 137.42 54.58 135.987 54.58 134.22V56.7801Z" fill="#BABABA"/>
<path fill-rule="evenodd" clip-rule="evenodd" d="M135.22 54.2201H57.78C56.3662 54.2201 55.22 55.3662 55.22 56.7801V134.22C55.22 135.634 56.3662 136.78 57.78 136.78H135.22C136.634 136.78 137.78 135.634 137.78 134.22V56.7801C137.78 55.3662 136.634 54.2201 135.22 54.2201ZM57.78 53.5801C56.0127 53.5801 54.58 55.0128 54.58 56.7801V134.22C54.58 135.987 56.0127 137.42 57.78 137.42H135.22C136.987 137.42 138.42 135.987 138.42 134.22V56.7801C138.42 55.0128 136.987 53.5801 135.22 53.5801H57.78Z" fill="#1A1A1A"/>
<path d="M62.9 65.0999C62.9 63.3326 64.3327 61.8999 66.1 61.8999H126.9C128.667 61.8999 130.1 63.3326 130.1 65.0999V125.9C130.1 127.667 128.667 129.1 126.9 129.1H66.1C64.3327 129.1 62.9 127.667 62.9 125.9V65.0999Z" fill="#D9D9D9"/>
<path fill-rule="evenodd" clip-rule="evenodd" d="M126.9 62.5399H66.1C64.6862 62.5399 63.54 63.6861 63.54 65.0999V125.9C63.54 127.314 64.6862 128.46 66.1 128.46H126.9C128.314 128.46 129.46 127.314 129.46 125.9V65.0999C129.46 63.6861 128.314 62.5399 126.9 62.5399ZM66.1 61.8999C64.3327 61.8999 62.9 63.3326 62.9 65.0999V125.9C62.9 127.667 64.3327 129.1 66.1 129.1H126.9C128.667 129.1 130.1 127.667 130.1 125.9V65.0999C130.1 63.3326 128.667 61.8999 126.9 61.8999H66.1Z" fill="#1A1A1A"/>
</svg>
