<svg width="97" height="95" viewBox="0 0 97 95" fill="none" xmlns="http://www.w3.org/2000/svg">
<path d="M85.5 9C84.1193 9 83 10.1193 83 11.5C83 12.8807 84.1193 14 85.5 14H94.5C95.8807 14 97 12.8807 97 11.5C97 10.1193 95.8807 9 94.5 9H85.5Z" fill="#585858"/>
<path d="M85.5 21C84.1193 21 83 22.1193 83 23.5C83 24.8807 84.1193 26 85.5 26H94.5C95.8807 26 97 24.8807 97 23.5C97 22.1193 95.8807 21 94.5 21H85.5Z" fill="#585858"/>
<path d="M85.5 33C84.1193 33 83 34.1193 83 35.5C83 36.8807 84.1193 38 85.5 38H94.5C95.8807 38 97 36.8807 97 35.5C97 34.1193 95.8807 33 94.5 33H85.5Z" fill="#585858"/>
<path d="M85.5 45C84.1193 45 83 46.1193 83 47.5C83 48.8807 84.1193 50 85.5 50H94.5C95.8807 50 97 48.8807 97 47.5C97 46.1193 95.8807 45 94.5 45H85.5Z" fill="#585858"/>
<path d="M85.5 57C84.1193 57 83 58.1193 83 59.5C83 60.8807 84.1193 62 85.5 62H94.5C95.8807 62 97 60.8807 97 59.5C97 58.1193 95.8807 57 94.5 57H85.5Z" fill="#585858"/>
<path d="M85.5 69C84.1193 69 83 70.1193 83 71.5C83 72.8807 84.1193 74 85.5 74H94.5C95.8807 74 97 72.8807 97 71.5C97 70.1193 95.8807 69 94.5 69H85.5Z" fill="#585858"/>
<path d="M85.5 81C84.1193 81 83 82.1193 83 83.5C83 84.8807 84.1193 86 85.5 86H94.5C95.8807 86 97 84.8807 97 83.5C97 82.1193 95.8807 81 94.5 81H85.5Z" fill="#585858"/>
<path d="M11.5 9C12.8807 9 14 10.1193 14 11.5C14 12.8807 12.8807 14 11.5 14H2.5C1.11929 14 -1.64647e-08 12.8807 0 11.5C1.64649e-08 10.1193 1.11929 9 2.5 9H11.5Z" fill="#585858"/>
<path d="M11.5 21C12.8807 21 14 22.1193 14 23.5C14 24.8807 12.8807 26 11.5 26H2.5C1.11929 26 -1.64647e-08 24.8807 0 23.5C1.64649e-08 22.1193 1.11929 21 2.5 21H11.5Z" fill="#585858"/>
<path d="M11.5 33C12.8807 33 14 34.1193 14 35.5C14 36.8807 12.8807 38 11.5 38H2.5C1.11929 38 -1.64647e-08 36.8807 0 35.5C1.64649e-08 34.1193 1.11929 33 2.5 33H11.5Z" fill="#585858"/>
<path d="M11.5 45C12.8807 45 14 46.1193 14 47.5C14 48.8807 12.8807 50 11.5 50H2.5C1.11929 50 -1.64647e-08 48.8807 0 47.5C1.64649e-08 46.1193 1.11929 45 2.5 45H11.5Z" fill="#585858"/>
<path d="M11.5 57C12.8807 57 14 58.1193 14 59.5C14 60.8807 12.8807 62 11.5 62H2.5C1.11929 62 -1.64647e-08 60.8807 0 59.5C1.64649e-08 58.1193 1.11929 57 2.5 57H11.5Z" fill="#585858"/>
<path d="M11.5 69C12.8807 69 14 70.1193 14 71.5C14 72.8807 12.8807 74 11.5 74H2.5C1.11929 74 -1.64647e-08 72.8807 0 71.5C1.64649e-08 70.1193 1.11929 69 2.5 69H11.5Z" fill="#585858"/>
<path d="M11.5 81C12.8807 81 14 82.1193 14 83.5C14 84.8807 12.8807 86 11.5 86H2.5C1.11929 86 -1.64647e-08 84.8807 0 83.5C1.64649e-08 82.1193 1.11929 81 2.5 81H11.5Z" fill="#585858"/>
<path d="M87 11.5C87 12.8807 85.8807 14 84.5 14C83.1193 14 82 12.8807 82 11.5V2.5C82 1.11929 83.1193 -7.68177e-08 84.5 0C85.8807 7.68177e-08 87 1.11929 87 2.5V11.5Z" fill="#585858"/>
<path d="M75 11.5C75 12.8807 73.8807 14 72.5 14C71.1193 14 70 12.8807 70 11.5V2.5C70 1.11929 71.1193 -7.68177e-08 72.5 0C73.8807 7.68177e-08 75 1.11929 75 2.5V11.5Z" fill="#585858"/>
<path d="M63 11.5C63 12.8807 61.8807 14 60.5 14C59.1193 14 58 12.8807 58 11.5V2.5C58 1.11929 59.1193 -7.68177e-08 60.5 0C61.8807 7.68177e-08 63 1.11929 63 2.5V11.5Z" fill="#585858"/>
<path d="M51 11.5C51 12.8807 49.8807 14 48.5 14C47.1193 14 46 12.8807 46 11.5V2.5C46 1.11929 47.1193 -7.68177e-08 48.5 0C49.8807 7.68177e-08 51 1.11929 51 2.5V11.5Z" fill="#585858"/>
<path d="M39 11.5C39 12.8807 37.8807 14 36.5 14C35.1193 14 34 12.8807 34 11.5V2.5C34 1.11929 35.1193 -7.68177e-08 36.5 0C37.8807 7.68177e-08 39 1.11929 39 2.5V11.5Z" fill="#585858"/>
<path d="M27 11.5C27 12.8807 25.8807 14 24.5 14C23.1193 14 22 12.8807 22 11.5V2.5C22 1.11929 23.1193 -7.68177e-08 24.5 0C25.8807 7.68177e-08 27 1.11929 27 2.5V11.5Z" fill="#585858"/>
<path d="M15 11.5C15 12.8807 13.8807 14 12.5 14C11.1193 14 10 12.8807 10 11.5L10 2.5C10 1.11929 11.1193 -7.68177e-08 12.5 0C13.8807 7.68177e-08 15 1.11929 15 2.5L15 11.5Z" fill="#585858"/>
<path d="M86 83.5C86 82.1193 84.8807 81 83.5 81C82.1193 81 81 82.1193 81 83.5V92.5C81 93.8807 82.1193 95 83.5 95C84.8807 95 86 93.8807 86 92.5V83.5Z" fill="#585858"/>
<path d="M74 83.5C74 82.1193 72.8807 81 71.5 81C70.1193 81 69 82.1193 69 83.5V92.5C69 93.8807 70.1193 95 71.5 95C72.8807 95 74 93.8807 74 92.5V83.5Z" fill="#585858"/>
<path d="M62 83.5C62 82.1193 60.8807 81 59.5 81C58.1193 81 57 82.1193 57 83.5V92.5C57 93.8807 58.1193 95 59.5 95C60.8807 95 62 93.8807 62 92.5V83.5Z" fill="#585858"/>
<path d="M50 83.5C50 82.1193 48.8807 81 47.5 81C46.1193 81 45 82.1193 45 83.5V92.5C45 93.8807 46.1193 95 47.5 95C48.8807 95 50 93.8807 50 92.5V83.5Z" fill="#585858"/>
<path d="M38 83.5C38 82.1193 36.8807 81 35.5 81C34.1193 81 33 82.1193 33 83.5V92.5C33 93.8807 34.1193 95 35.5 95C36.8807 95 38 93.8807 38 92.5V83.5Z" fill="#585858"/>
<path d="M26 83.5C26 82.1193 24.8807 81 23.5 81C22.1193 81 21 82.1193 21 83.5V92.5C21 93.8807 22.1193 95 23.5 95C24.8807 95 26 93.8807 26 92.5V83.5Z" fill="#585858"/>
<path d="M14 83.5C14 82.1193 12.8807 81 11.5 81C10.1193 81 9 82.1193 9 83.5L9 92.5C9 93.8807 10.1193 95 11.5 95C12.8807 95 14 93.8807 14 92.5L14 83.5Z" fill="#585858"/>
<path d="M6.58002 8.78007C6.58002 7.01276 8.01271 5.58008 9.78002 5.58008H87.22C88.9873 5.58008 90.42 7.01277 90.42 8.78008V86.2201C90.42 87.9874 88.9873 89.4201 87.22 89.4201H9.78001C8.0127 89.4201 6.58002 87.9874 6.58002 86.2201V8.78007Z" fill="#BABABA"/>
<path fill-rule="evenodd" clip-rule="evenodd" d="M87.22 6.22008H9.78002C8.36617 6.22008 7.22002 7.36622 7.22002 8.78007V86.2201C7.22002 87.6339 8.36616 88.7801 9.78001 88.7801H87.22C88.6339 88.7801 89.78 87.6339 89.78 86.2201V8.78008C89.78 7.36623 88.6339 6.22008 87.22 6.22008ZM9.78002 5.58008C8.01271 5.58008 6.58002 7.01276 6.58002 8.78007V86.2201C6.58002 87.9874 8.0127 89.4201 9.78001 89.4201H87.22C88.9873 89.4201 90.42 87.9874 90.42 86.2201V8.78008C90.42 7.01277 88.9873 5.58008 87.22 5.58008H9.78002Z" fill="#1A1A1A"/>
<path d="M14.9 17.0999C14.9 15.3326 16.3327 13.8999 18.1 13.8999H78.9C80.6673 13.8999 82.1 15.3326 82.1 17.0999V77.8999C82.1 79.6672 80.6673 81.0999 78.9 81.0999H18.1C16.3327 81.0999 14.9 79.6672 14.9 77.8999V17.0999Z" fill="#D9D9D9"/>
<path fill-rule="evenodd" clip-rule="evenodd" d="M78.9 14.5399H18.1C16.6862 14.5399 15.54 15.6861 15.54 17.0999V77.8999C15.54 79.3138 16.6862 80.4599 18.1 80.4599H78.9C80.3139 80.4599 81.46 79.3138 81.46 77.8999V17.0999C81.46 15.6861 80.3139 14.5399 78.9 14.5399ZM18.1 13.8999C16.3327 13.8999 14.9 15.3326 14.9 17.0999V77.8999C14.9 79.6672 16.3327 81.0999 18.1 81.0999H78.9C80.6673 81.0999 82.1 79.6672 82.1 77.8999V17.0999C82.1 15.3326 80.6673 13.8999 78.9 13.8999H18.1Z" fill="#1A1A1A"/>
</svg>
